# Blender 4.4.3
# www.blender.org
mtllib Block_Key.mtl
o Plane
v 0.000000 0.500000 0.400000
v 0.000000 0.500000 0.000000
v 0.150000 0.500000 0.000000
v 0.000000 0.500000 0.150000
v 0.150000 0.500000 0.150000
v 0.400000 0.500000 0.150000
v 0.150000 0.500000 0.400000
v 0.396922 0.500000 0.189109
v 0.387764 0.500000 0.227254
v 0.372752 0.500000 0.263498
v 0.352254 0.500000 0.296946
v 0.326777 0.500000 0.326777
v 0.296946 0.500000 0.352254
v 0.263498 0.500000 0.372752
v 0.227254 0.500000 0.387764
v 0.189109 0.500000 0.396922
v 0.500000 -0.500000 0.500000
v 0.500000 0.500000 0.500000
v 0.500000 0.500000 0.125000
v 0.500000 -0.500000 0.125000
v 0.125000 -0.500000 0.500000
v 0.125000 0.500000 0.500000
v 0.125000 -0.500000 0.125000
v 0.400000 -0.500000 0.500000
v 0.400000 0.500000 0.500000
v 0.400000 -0.500000 0.125000
v 0.500000 0.500000 0.400000
v 0.500000 -0.500000 0.400000
v 0.125000 -0.500000 0.400000
v 0.400000 0.500000 0.400000
v 0.400000 -0.500000 0.400000
v 0.125000 0.000000 0.400000
v 0.125000 0.000000 0.500000
v 0.000000 -0.500000 0.500000
v 0.000000 -0.500000 0.125000
v 0.000000 -0.500000 0.400000
v 0.000000 0.500000 0.400000
v 0.000000 0.000000 0.500000
v 0.000000 0.000000 0.400000
v 0.500000 -0.500000 0.000000
v 0.125000 -0.500000 0.000000
v 0.400000 0.500000 0.000000
v 0.400000 -0.500000 0.000000
v 0.000000 -0.500000 0.000000
v 0.500000 0.000000 0.500000
v 0.500000 0.000000 0.125000
v 0.400000 0.000000 0.500000
v 0.500000 0.000000 0.400000
v 0.500000 0.000000 0.000000
v 0.400000 0.000000 0.125000
v 0.400000 0.000000 0.000000
v 0.125000 0.500000 0.000000
v 0.125000 0.500000 0.150000
v 0.125000 0.500000 0.400000
v 0.000000 0.500000 0.125000
v 0.150000 0.500000 0.125000
v 0.400000 0.500000 0.125000
v 0.125000 0.500000 0.125000
v -0.150000 0.500000 0.000000
v -0.150000 0.500000 0.150000
v -0.400000 0.500000 0.150000
v -0.150000 0.500000 0.400000
v -0.396922 0.500000 0.189109
v -0.387764 0.500000 0.227254
v -0.372752 0.500000 0.263498
v -0.352254 0.500000 0.296946
v -0.326777 0.500000 0.326777
v -0.296946 0.500000 0.352254
v -0.263498 0.500000 0.372752
v -0.227254 0.500000 0.387764
v -0.189109 0.500000 0.396922
v -0.500000 -0.500000 0.500000
v -0.500000 0.500000 0.500000
v -0.500000 0.500000 0.125000
v -0.500000 -0.500000 0.125000
v -0.125000 -0.500000 0.500000
v -0.125000 0.500000 0.500000
v -0.125000 -0.500000 0.125000
v -0.400000 -0.500000 0.500000
v -0.400000 0.500000 0.500000
v -0.400000 -0.500000 0.125000
v -0.500000 0.500000 0.400000
v -0.500000 -0.500000 0.400000
v -0.125000 -0.500000 0.400000
v -0.400000 0.500000 0.400000
v -0.400000 -0.500000 0.400000
v -0.125000 0.000000 0.400000
v -0.125000 0.000000 0.500000
v -0.500000 -0.500000 0.000000
v -0.125000 -0.500000 0.000000
v -0.400000 0.500000 0.000000
v -0.400000 -0.500000 0.000000
v -0.500000 0.000000 0.500000
v -0.500000 0.000000 0.125000
v -0.400000 0.000000 0.500000
v -0.500000 0.000000 0.400000
v -0.500000 0.000000 0.000000
v -0.400000 0.000000 0.125000
v -0.400000 0.000000 0.000000
v -0.125000 0.500000 0.000000
v -0.125000 0.500000 0.150000
v -0.125000 0.500000 0.400000
v -0.150000 0.500000 0.125000
v -0.400000 0.500000 0.125000
v -0.125000 0.500000 0.125000
v 0.000000 0.500000 -0.400000
v 0.000000 0.500000 -0.150000
v 0.150000 0.500000 -0.150000
v 0.400000 0.500000 -0.150000
v 0.150000 0.500000 -0.400000
v 0.396922 0.500000 -0.189109
v 0.387764 0.500000 -0.227254
v 0.372752 0.500000 -0.263498
v 0.352254 0.500000 -0.296946
v 0.326777 0.500000 -0.326777
v 0.296946 0.500000 -0.352254
v 0.263498 0.500000 -0.372752
v 0.227254 0.500000 -0.387764
v 0.189109 0.500000 -0.396922
v 0.500000 -0.500000 -0.500000
v 0.500000 0.500000 -0.500000
v 0.500000 0.500000 -0.125000
v 0.500000 -0.500000 -0.125000
v 0.125000 -0.500000 -0.500000
v 0.125000 0.500000 -0.500000
v 0.125000 -0.500000 -0.125000
v 0.400000 -0.500000 -0.500000
v 0.400000 0.500000 -0.500000
v 0.400000 -0.500000 -0.125000
v 0.500000 0.500000 -0.400000
v 0.500000 -0.500000 -0.400000
v 0.125000 -0.500000 -0.400000
v 0.400000 0.500000 -0.400000
v 0.400000 -0.500000 -0.400000
v 0.125000 0.000000 -0.400000
v 0.125000 0.000000 -0.500000
v 0.000000 -0.500000 -0.500000
v 0.000000 -0.500000 -0.125000
v 0.000000 -0.500000 -0.400000
v 0.000000 0.500000 -0.400000
v 0.000000 0.000000 -0.500000
v 0.000000 0.000000 -0.400000
v 0.500000 0.000000 -0.500000
v 0.500000 0.000000 -0.125000
v 0.400000 0.000000 -0.500000
v 0.500000 0.000000 -0.400000
v 0.400000 0.000000 -0.125000
v 0.125000 0.500000 -0.150000
v 0.125000 0.500000 -0.400000
v 0.000000 0.500000 -0.125000
v 0.150000 0.500000 -0.125000
v 0.400000 0.500000 -0.125000
v 0.125000 0.500000 -0.125000
v -0.150000 0.500000 -0.150000
v -0.400000 0.500000 -0.150000
v -0.150000 0.500000 -0.400000
v -0.396922 0.500000 -0.189109
v -0.387764 0.500000 -0.227254
v -0.372752 0.500000 -0.263498
v -0.352254 0.500000 -0.296946
v -0.326777 0.500000 -0.326777
v -0.296946 0.500000 -0.352254
v -0.263498 0.500000 -0.372752
v -0.227254 0.500000 -0.387764
v -0.189109 0.500000 -0.396922
v -0.500000 -0.500000 -0.500000
v -0.500000 0.500000 -0.500000
v -0.500000 0.500000 -0.125000
v -0.500000 -0.500000 -0.125000
v -0.125000 -0.500000 -0.500000
v -0.125000 0.500000 -0.500000
v -0.125000 -0.500000 -0.125000
v -0.400000 -0.500000 -0.500000
v -0.400000 0.500000 -0.500000
v -0.400000 -0.500000 -0.125000
v -0.500000 0.500000 -0.400000
v -0.500000 -0.500000 -0.400000
v -0.125000 -0.500000 -0.400000
v -0.400000 0.500000 -0.400000
v -0.400000 -0.500000 -0.400000
v -0.125000 0.000000 -0.400000
v -0.125000 0.000000 -0.500000
v -0.500000 0.000000 -0.500000
v -0.500000 0.000000 -0.125000
v -0.400000 0.000000 -0.500000
v -0.500000 0.000000 -0.400000
v -0.400000 0.000000 -0.125000
v -0.125000 0.500000 -0.150000
v -0.125000 0.500000 -0.400000
v -0.150000 0.500000 -0.125000
v -0.400000 0.500000 -0.125000
v -0.125000 0.500000 -0.125000
vn -0.0000 1.0000 -0.0000
vn 1.0000 -0.0000 -0.0000
vn -0.0000 -1.0000 -0.0000
vn -0.0000 -0.0000 1.0000
vn -1.0000 -0.0000 -0.0000
vn -0.0000 -0.0000 -1.0000
vt 0.750000 0.375000
vt 1.000000 0.375000
vt 1.000000 0.500000
vt 0.750000 0.500000
vt 0.750000 0.000000
vt 0.789109 0.001026
vt 0.827254 0.004079
vt 0.863498 0.009083
vt 0.896946 0.015915
vt 0.975592 0.024408
vt 0.984085 0.103054
vt 0.990917 0.136502
vt 0.995921 0.172746
vt 0.998974 0.210891
vt 1.000000 0.250000
vt 0.750000 0.250000
vt 0.625000 0.375000
vt 0.625000 0.500000
vt 0.625000 0.000000
vt 0.625000 0.250000
vt 0.500000 0.718750
vt 0.625000 0.718750
vt 0.625000 0.750000
vt 0.500000 0.750000
vt 0.343750 0.718750
vt 0.375000 0.718750
vt 0.375000 0.750000
vt 0.343750 0.750000
vt 0.312500 0.625000
vt 0.343750 0.625000
vt 0.343750 0.687500
vt 0.312500 0.687500
vt 0.249906 0.625000
vt 0.249906 0.687500
vt 0.500000 0.781250
vt 0.625000 0.781250
vt 0.625000 0.812500
vt 0.500000 0.812500
vt 0.656250 0.718750
vt 0.687500 0.718750
vt 0.687500 0.750000
vt 0.656250 0.750000
vt 0.312500 0.718750
vt 0.312500 0.750000
vt 0.500000 0.625000
vt 0.500000 0.687500
vt 0.375000 0.687500
vt 0.375000 0.625000
vt 0.625000 0.687500
vt 0.656250 0.687500
vt 0.249906 0.718750
vt 0.750094 0.718750
vt 0.750083 0.750000
vt 0.249917 0.750000
vt 0.750094 0.718750
vt 0.375000 0.781250
vt 0.375000 0.812500
vt 0.625000 0.625000
vt 0.656250 0.625000
vt 0.500000 0.000000
vt 0.500000 0.250000
vt 0.500000 0.375000
vt 0.500000 0.500000
s 0
usemtl Material.001
f 48/21/2 27/22/2 18/23/2 45/24/2
f 31/25/3 28/26/3 17/27/3 24/28/3
f 41/29/3 43/30/3 26/31/3 23/32/3
f 44/33/3 41/29/3 23/32/3 35/34/3
f 47/35/4 25/36/4 22/37/4 33/38/4
f 30/39/1 54/40/1 22/41/1 25/42/1
f 27/22/1 30/39/1 25/42/1 18/23/1
f 45/24/4 18/23/4 25/36/4 47/35/4
f 29/43/3 31/25/3 24/28/3 21/44/3
f 49/45/2 46/46/2 20/47/2 40/48/2
f 23/32/3 26/31/3 31/25/3 29/43/3
f 19/49/1 57/50/1 30/39/1 27/22/1
f 35/34/3 23/32/3 29/43/3 36/51/3
f 26/31/3 20/47/3 28/26/3 31/25/3
f 46/46/2 19/49/2 27/22/2 48/21/2
f 39/52/1 38/53/1 33/41/1 32/40/1
f 22/41/5 54/40/5 32/40/5 33/41/5
f 34/54/4 21/44/4 33/41/4 38/53/4
f 29/43/3 21/44/3 34/54/3 36/51/3
f 20/47/3 26/31/3 43/30/3 40/48/3
f 20/47/2 46/46/2 48/21/2 28/26/2
f 17/27/4 45/24/4 47/35/4 24/56/4
f 24/56/4 47/35/4 33/38/4 21/57/4
f 28/26/2 48/21/2 45/24/2 17/27/2
f 49/58/1 51/59/1 50/50/1 46/49/1
f 57/50/6 19/49/6 46/49/6 50/50/6
f 8/14/1 30/39/1 57/50/1 6/15/1
f 8/14/1 9/13/1 30/39/1
f 9/13/1 10/12/1 30/39/1
f 10/12/1 11/11/1 30/39/1
f 11/11/1 12/10/1 30/39/1
f 12/10/1 13/9/1 30/39/1
f 13/9/1 14/8/1 30/39/1
f 14/8/1 15/7/1 30/39/1
f 15/7/1 16/6/1 30/39/1
f 16/6/1 7/5/1 54/40/1 30/39/1
f 96/21/5 93/24/5 73/23/5 82/22/5
f 86/25/3 79/28/3 72/27/3 83/26/3
f 90/29/3 78/32/3 81/31/3 92/30/3
f 44/33/3 35/34/3 78/32/3 90/29/3
f 95/35/4 88/38/4 77/37/4 80/36/4
f 85/39/1 80/42/1 77/41/1 102/40/1
f 82/22/1 73/23/1 80/42/1 85/39/1
f 93/24/4 95/35/4 80/36/4 73/23/4
f 84/43/3 76/44/3 79/28/3 86/25/3
f 97/45/5 89/48/5 75/47/5 94/46/5
f 78/32/3 84/43/3 86/25/3 81/31/3
f 74/49/1 82/22/1 85/39/1 104/50/1
f 35/34/3 36/51/3 84/43/3 78/32/3
f 81/31/3 86/25/3 83/26/3 75/47/3
f 94/46/5 96/21/5 82/22/5 74/49/5
f 39/52/1 87/40/1 88/41/1 38/53/1
f 77/41/2 88/41/2 87/40/2 102/40/2
f 34/54/4 38/53/4 88/41/4 76/44/4
f 84/43/3 36/51/3 34/54/3 76/44/3
f 75/47/3 89/48/3 92/30/3 81/31/3
f 75/47/5 83/26/5 96/21/5 94/46/5
f 72/27/4 79/56/4 95/35/4 93/24/4
f 79/56/4 76/57/4 88/38/4 95/35/4
f 83/26/5 72/27/5 93/24/5 96/21/5
f 97/58/1 94/49/1 98/50/1 99/59/1
f 104/50/6 98/50/6 94/49/6 74/49/6
f 63/14/1 61/15/1 104/50/1 85/39/1
f 63/14/1 85/39/1 64/13/1
f 64/13/1 85/39/1 65/12/1
f 65/12/1 85/39/1 66/11/1
f 66/11/1 85/39/1 67/10/1
f 67/10/1 85/39/1 68/9/1
f 68/9/1 85/39/1 69/8/1
f 69/8/1 85/39/1 70/7/1
f 70/7/1 85/39/1 71/6/1
f 71/6/1 85/39/1 102/40/1 62/5/1
f 146/21/2 143/24/2 121/23/2 130/22/2
f 134/25/3 127/28/3 120/27/3 131/26/3
f 41/29/3 126/32/3 129/31/3 43/30/3
f 44/33/3 138/34/3 126/32/3 41/29/3
f 145/35/6 136/38/6 125/37/6 128/36/6
f 133/39/1 128/42/1 125/41/1 149/40/1
f 130/22/1 121/23/1 128/42/1 133/39/1
f 143/24/6 145/35/6 128/36/6 121/23/6
f 132/43/3 124/44/3 127/28/3 134/25/3
f 49/45/2 40/48/2 123/47/2 144/46/2
f 126/32/3 132/43/3 134/25/3 129/31/3
f 122/49/1 130/22/1 133/39/1 152/50/1
f 138/34/3 139/51/3 132/43/3 126/32/3
f 129/31/3 134/25/3 131/26/3 123/47/3
f 144/46/2 146/21/2 130/22/2 122/49/2
f 142/52/1 135/40/1 136/41/1 141/53/1
f 125/41/5 136/41/5 135/40/5 149/40/5
f 137/54/6 141/53/6 136/41/6 124/44/6
f 132/43/3 139/51/3 137/54/3 124/44/3
f 123/47/3 40/48/3 43/30/3 129/31/3
f 123/47/2 131/26/2 146/21/2 144/46/2
f 120/27/6 127/56/6 145/35/6 143/24/6
f 127/56/6 124/57/6 136/38/6 145/35/6
f 131/26/2 120/27/2 143/24/2 146/21/2
f 49/58/1 144/49/1 147/50/1 51/59/1
f 152/50/4 147/50/4 144/49/4 122/49/4
f 111/14/1 109/15/1 152/50/1 133/39/1
f 111/14/1 133/39/1 112/13/1
f 112/13/1 133/39/1 113/12/1
f 113/12/1 133/39/1 114/11/1
f 114/11/1 133/39/1 115/10/1
f 115/10/1 133/39/1 116/9/1
f 116/9/1 133/39/1 117/8/1
f 117/8/1 133/39/1 118/7/1
f 118/7/1 133/39/1 119/6/1
f 119/6/1 133/39/1 149/40/1 110/5/1
f 186/21/5 176/22/5 167/23/5 183/24/5
f 180/25/3 177/26/3 166/27/3 173/28/3
f 90/29/3 92/30/3 175/31/3 172/32/3
f 44/33/3 90/29/3 172/32/3 138/34/3
f 185/35/6 174/36/6 171/37/6 182/38/6
f 179/39/1 189/40/1 171/41/1 174/42/1
f 176/22/1 179/39/1 174/42/1 167/23/1
f 183/24/6 167/23/6 174/36/6 185/35/6
f 178/43/3 180/25/3 173/28/3 170/44/3
f 97/45/5 184/46/5 169/47/5 89/48/5
f 172/32/3 175/31/3 180/25/3 178/43/3
f 168/49/1 191/50/1 179/39/1 176/22/1
f 138/34/3 172/32/3 178/43/3 139/51/3
f 175/31/3 169/47/3 177/26/3 180/25/3
f 184/46/5 168/49/5 176/22/5 186/21/5
f 142/52/1 141/53/1 182/41/1 181/40/1
f 171/41/2 189/40/2 181/40/2 182/41/2
f 137/54/6 170/44/6 182/41/6 141/53/6
f 178/43/3 170/44/3 137/54/3 139/51/3
f 169/47/3 175/31/3 92/30/3 89/48/3
f 169/47/5 184/46/5 186/21/5 177/26/5
f 166/27/6 183/24/6 185/35/6 173/56/6
f 173/56/6 185/35/6 182/38/6 170/57/6
f 177/26/5 186/21/5 183/24/5 166/27/5
f 97/58/1 99/59/1 187/50/1 184/49/1
f 191/50/4 168/49/4 184/49/4 187/50/4
f 157/14/1 179/39/1 191/50/1 155/15/1
f 157/14/1 158/13/1 179/39/1
f 158/13/1 159/12/1 179/39/1
f 159/12/1 160/11/1 179/39/1
f 160/11/1 161/10/1 179/39/1
f 161/10/1 162/9/1 179/39/1
f 162/9/1 163/8/1 179/39/1
f 163/8/1 164/7/1 179/39/1
f 164/7/1 165/6/1 179/39/1
f 165/6/1 156/5/1 189/40/1 179/39/1
usemtl Material.002
f 56/1/1 57/2/1 42/3/1 3/4/1
f 7/5/1 16/6/1 15/7/1 14/8/1 13/9/1 12/10/1 11/11/1 10/12/1 9/13/1 8/14/1 6/15/1 5/16/1
f 58/17/1 56/1/1 3/4/1 52/18/1
f 54/19/1 7/5/1 5/16/1 53/20/1
f 54/40/4 37/55/4 39/52/4 32/40/4
f 42/59/2 57/50/2 50/50/2 51/59/2
f 1/60/1 54/19/1 53/20/1 4/61/1
f 55/62/1 58/17/1 52/18/1 2/63/1
f 4/61/1 53/20/1 58/17/1 55/62/1
f 53/20/1 5/16/1 56/1/1 58/17/1
f 5/16/1 6/15/1 57/2/1 56/1/1
f 103/1/1 59/4/1 91/3/1 104/2/1
f 62/5/1 60/16/1 61/15/1 63/14/1 64/13/1 65/12/1 66/11/1 67/10/1 68/9/1 69/8/1 70/7/1 71/6/1
f 105/17/1 100/18/1 59/4/1 103/1/1
f 102/19/1 101/20/1 60/16/1 62/5/1
f 102/40/4 87/40/4 39/52/4 37/55/4
f 91/59/5 99/59/5 98/50/5 104/50/5
f 1/60/1 4/61/1 101/20/1 102/19/1
f 55/62/1 2/63/1 100/18/1 105/17/1
f 4/61/1 55/62/1 105/17/1 101/20/1
f 101/20/1 105/17/1 103/1/1 60/16/1
f 60/16/1 103/1/1 104/2/1 61/15/1
f 151/1/1 3/4/1 42/3/1 152/2/1
f 110/5/1 108/16/1 109/15/1 111/14/1 112/13/1 113/12/1 114/11/1 115/10/1 116/9/1 117/8/1 118/7/1 119/6/1
f 153/17/1 52/18/1 3/4/1 151/1/1
f 149/19/1 148/20/1 108/16/1 110/5/1
f 149/40/6 135/40/6 142/52/6 140/55/6
f 42/59/2 51/59/2 147/50/2 152/50/2
f 106/60/1 107/61/1 148/20/1 149/19/1
f 150/62/1 2/63/1 52/18/1 153/17/1
f 107/61/1 150/62/1 153/17/1 148/20/1
f 148/20/1 153/17/1 151/1/1 108/16/1
f 108/16/1 151/1/1 152/2/1 109/15/1
f 190/1/1 191/2/1 91/3/1 59/4/1
f 156/5/1 165/6/1 164/7/1 163/8/1 162/9/1 161/10/1 160/11/1 159/12/1 158/13/1 157/14/1 155/15/1 154/16/1
f 192/17/1 190/1/1 59/4/1 100/18/1
f 189/19/1 156/5/1 154/16/1 188/20/1
f 189/40/6 140/55/6 142/52/6 181/40/6
f 91/59/5 191/50/5 187/50/5 99/59/5
f 106/60/1 189/19/1 188/20/1 107/61/1
f 150/62/1 192/17/1 100/18/1 2/63/1
f 107/61/1 188/20/1 192/17/1 150/62/1
f 188/20/1 154/16/1 190/1/1 192/17/1
f 154/16/1 155/15/1 191/2/1 190/1/1
